<svg width="38" height="35" viewBox="0 0 38 35" fill="none" xmlns="http://www.w3.org/2000/svg">
<path d="M37.1973 17.5C37.1973 26.8705 29.0801 34.5193 19 34.5193C8.91997 34.5193 0.802744 26.8705 0.802744 17.5C0.802744 8.12953 8.91997 0.480723 19 0.480723C29.0801 0.480723 37.1973 8.12953 37.1973 17.5Z" stroke="#C3C0C0" stroke-width="0.961445"/>
<path d="M24.822 10.7938C24.555 10.7938 24.2941 10.868 24.0721 11.007C23.8501 11.1459 23.6771 11.3435 23.575 11.5745C23.4728 11.8056 23.4461 12.0599 23.4981 12.3052C23.5502 12.5505 23.6788 12.7759 23.8675 12.9527C24.0563 13.1296 24.2968 13.25 24.5587 13.2988C24.8205 13.3476 25.0919 13.3226 25.3385 13.2269C25.5852 13.1312 25.796 12.9691 25.9443 12.7611C26.0926 12.5531 26.1718 12.3086 26.1718 12.0585C26.1718 11.7231 26.0295 11.4014 25.7764 11.1643C25.5233 10.9271 25.18 10.7938 24.822 10.7938ZM29.9961 13.3442C29.9742 12.4698 29.7994 11.6047 29.4787 10.7833C29.1927 10.0805 28.7476 9.44414 28.1739 8.91796C27.6169 8.37778 26.9361 7.96334 26.183 7.70601C25.3086 7.39634 24.3843 7.22883 23.4497 7.21069C22.2574 7.14746 21.875 7.14746 18.8155 7.14746C15.756 7.14746 15.3736 7.14746 14.1813 7.21069C13.2467 7.22883 12.3223 7.39634 11.448 7.70601C10.6962 7.96595 10.016 8.38003 9.45706 8.91796C8.88052 9.43981 8.43818 10.0777 8.16353 10.7833C7.83302 11.6025 7.65423 12.4686 7.63487 13.3442C7.56738 14.4613 7.56738 14.8196 7.56738 17.6862C7.56738 20.5527 7.56738 20.911 7.63487 22.0281C7.65423 22.9037 7.83302 23.7698 8.16353 24.589C8.43818 25.2946 8.88052 25.9325 9.45706 26.4543C10.016 26.9923 10.6962 27.4064 11.448 27.6663C12.3223 27.976 13.2467 28.1435 14.1813 28.1616C15.3736 28.2248 15.756 28.2248 18.8155 28.2248C21.875 28.2248 22.2574 28.2248 23.4497 28.1616C24.3843 28.1435 25.3086 27.976 26.183 27.6663C26.9361 27.409 27.6169 26.9945 28.1739 26.4543C28.7501 25.9301 29.1956 25.2932 29.4787 24.589C29.7994 23.7676 29.9742 22.9025 29.9961 22.0281C29.9961 20.911 30.0636 20.5527 30.0636 17.6862C30.0636 14.8196 30.0636 14.4613 29.9961 13.3442ZM27.9714 21.9016C27.9633 22.5706 27.8339 23.2334 27.589 23.8618C27.4094 24.3205 27.121 24.7349 26.7454 25.0738C26.3806 25.4221 25.9392 25.6918 25.4519 25.8642C24.7812 26.0937 24.0737 26.2148 23.3597 26.2225C22.2349 26.2752 21.8187 26.2857 18.8605 26.2857C15.9022 26.2857 15.4861 26.2857 14.3612 26.2225C13.6199 26.2355 12.8817 26.1285 12.1791 25.9063C11.7132 25.7252 11.292 25.4561 10.9418 25.1159C10.5685 24.7774 10.2836 24.3626 10.1095 23.904C9.83484 23.2666 9.68253 22.5887 9.65953 21.9016C9.65953 20.8478 9.59204 20.4578 9.59204 17.6862C9.59204 14.9145 9.59204 14.5245 9.65953 13.4707C9.66457 12.7868 9.79783 12.109 10.0532 11.4683C10.2512 11.0235 10.5552 10.627 10.9418 10.3091C11.2835 9.94672 11.7059 9.65893 12.1791 9.46597C12.8647 9.23417 13.5874 9.11301 14.3162 9.10766C15.4411 9.10766 15.8572 9.04443 18.8155 9.04443C21.7737 9.04443 22.1899 9.04443 23.3147 9.10766C24.0287 9.11533 24.7362 9.23649 25.4069 9.46597C25.918 9.64371 26.3768 9.93268 26.7454 10.3091C27.114 10.6328 27.402 11.0286 27.589 11.4683C27.839 12.1101 27.9684 12.7875 27.9714 13.4707C28.0277 14.5245 28.0389 14.9145 28.0389 17.6862C28.0389 20.4578 28.0277 20.8478 27.9714 21.9016ZM18.8155 12.2798C17.6747 12.2819 16.5602 12.6007 15.6128 13.1961C14.6653 13.7914 13.9275 14.6365 13.4925 15.6245C13.0575 16.6126 12.9448 17.6993 13.1687 18.7473C13.3926 19.7954 13.9431 20.7577 14.7505 21.5127C15.5579 22.2678 16.5861 22.7816 17.7051 22.9894C18.8242 23.1971 19.9838 23.0895 21.0375 22.68C22.0912 22.2705 22.9918 21.5775 23.6253 20.6887C24.2589 19.7998 24.597 18.755 24.597 17.6862C24.5985 16.9749 24.4499 16.2704 24.1597 15.6131C23.8696 14.9559 23.4436 14.3589 22.9063 13.8564C22.369 13.354 21.7309 12.956 21.0289 12.6855C20.3268 12.4149 19.5746 12.277 18.8155 12.2798ZM18.8155 21.1955C18.0747 21.1955 17.3505 20.9897 16.7345 20.6041C16.1186 20.2185 15.6385 19.6704 15.355 19.0291C15.0715 18.3879 14.9973 17.6823 15.1418 17.0015C15.2864 16.3208 15.6431 15.6954 16.1669 15.2046C16.6908 14.7138 17.3582 14.3796 18.0848 14.2442C18.8113 14.1088 19.5645 14.1783 20.2489 14.4439C20.9333 14.7095 21.5183 15.1593 21.9299 15.7364C22.3414 16.3136 22.5611 16.9921 22.5611 17.6862C22.5611 18.147 22.4642 18.6034 22.276 19.0291C22.0878 19.4549 21.8119 19.8418 21.464 20.1677C21.1162 20.4935 20.7033 20.752 20.2489 20.9284C19.7944 21.1048 19.3074 21.1955 18.8155 21.1955Z" fill="#C3C0C0"/>
</svg>
