<svg width="39" height="35" viewBox="0 0 39 35" fill="none" xmlns="http://www.w3.org/2000/svg">
<path d="M9.69336 13.5673H14.294V24.8212H9.69336V13.5673Z" fill="#C3C0C0"/>
<path d="M11.9476 11.772C13.2335 11.772 14.276 10.8804 14.276 9.78061C14.276 8.68081 13.2335 7.78925 11.9476 7.78925C10.6616 7.78925 9.61914 8.68081 9.61914 9.78061C9.61914 10.8804 10.6616 11.772 11.9476 11.772Z" fill="#C3C0C0"/>
<path d="M25.8581 13.3133C24.9159 13.3133 24.1176 13.4741 23.4614 13.7955C22.8058 14.1172 22.1581 14.6521 21.5172 15.4009V13.5676H17.2329V24.8215H21.8336V19.417C21.8336 18.3925 22.0071 17.683 22.3538 17.2871C22.7006 16.8916 23.1522 16.6937 23.7101 16.6937C24.215 16.6937 24.6068 16.8405 24.8859 17.1337C25.165 17.4268 25.3039 17.9265 25.3039 18.6333V24.8215H29.9274V17.6689C29.9274 16.1851 29.5673 15.0884 28.8473 14.3782C28.1284 13.6681 27.1313 13.3133 25.8581 13.3133Z" fill="#C3C0C0"/>
<path d="M37.8414 17.5C37.8414 26.8705 29.7241 34.5193 19.6441 34.5193C9.56401 34.5193 1.44679 26.8705 1.44679 17.5C1.44679 8.12953 9.56401 0.480723 19.6441 0.480723C29.7241 0.480723 37.8414 8.12953 37.8414 17.5Z" stroke="#C3C0C0" stroke-width="0.961445"/>
</svg>
