<svg width="37" height="34" viewBox="0 0 37 34" fill="none" xmlns="http://www.w3.org/2000/svg">
<mask id="mask0_148_790" style="mask-type:luminance" maskUnits="userSpaceOnUse" x="0" y="0" width="37" height="34">
<path d="M0 0.248047H36.5246V33.7518H0V0.248047Z" fill="white"/>
</mask>
<g mask="url(#mask0_148_790)">
<mask id="mask1_148_790" style="mask-type:luminance" maskUnits="userSpaceOnUse" x="0" y="0" width="37" height="34">
<path d="M0 0.248047H36.5246V33.7518H0V0.248047Z" fill="white"/>
</mask>
<g mask="url(#mask1_148_790)">
<path fill-rule="evenodd" clip-rule="evenodd" d="M25.4663 13.7817V11.0548C25.4565 10.2938 25.8931 9.58851 26.6044 9.21628L29.1356 7.85403C30.2147 7.18952 30.5528 5.85579 29.9073 4.81042C29.2617 3.76505 27.8558 3.36951 26.6988 3.90779L24.1701 5.27242C23.4683 5.66045 22.5957 5.66045 21.894 5.27242L19.3627 3.90779C18.2044 3.35394 16.7842 3.74536 16.134 4.79766C15.4838 5.84996 15.8321 7.19329 16.9259 7.85165L19.4597 9.21628C20.1713 9.58916 20.607 10.2957 20.5952 11.0572V13.7841C20.6683 14.9901 21.7378 15.9328 23.032 15.9322C24.3262 15.9316 25.3945 14.9878 25.4663 13.7817Z" fill="#7060C1"/>
</g>
<mask id="mask2_148_790" style="mask-type:luminance" maskUnits="userSpaceOnUse" x="0" y="0" width="37" height="34">
<path d="M0 0.248047H36.5246V33.7518H0V0.248047Z" fill="white"/>
</mask>
<g mask="url(#mask2_148_790)">
<path fill-rule="evenodd" clip-rule="evenodd" d="M23.0467 0.248058C22.3923 0.24616 21.7638 0.486975 21.2997 0.917526C20.8355 1.34808 20.5736 1.9331 20.5716 2.54388C20.5688 3.15445 20.8263 3.74098 21.2872 4.17428C21.7481 4.60758 22.3746 4.8521 23.0288 4.85399C23.6832 4.85652 24.3119 4.61632 24.7766 4.18621C25.2412 3.75611 25.5038 3.17134 25.5065 2.56055C25.5107 1.28827 24.4098 0.253309 23.0467 0.248058Z" fill="#7060C1"/>
</g>
<mask id="mask3_148_790" style="mask-type:luminance" maskUnits="userSpaceOnUse" x="0" y="0" width="37" height="34">
<path d="M0 0.248047H36.5246V33.7518H0V0.248047Z" fill="white"/>
</mask>
<g mask="url(#mask3_148_790)">
<path fill-rule="evenodd" clip-rule="evenodd" d="M24.8539 21.2197L27.3852 19.8575C28.0861 19.4668 28.9603 19.4668 29.6612 19.8575L32.1899 21.2197C33.348 21.7769 34.7707 21.3875 35.4229 20.3348C36.0751 19.2822 35.727 17.937 34.6319 17.2782L32.1006 15.9088C31.3885 15.5374 30.9517 14.8316 30.9626 14.0703V11.341C30.9029 10.124 29.8285 9.16602 28.5232 9.16602C27.2179 9.16602 26.1435 10.124 26.0838 11.341V14.0703C26.0946 14.8322 25.6579 15.5386 24.9458 15.9112L22.4145 17.2735C21.2469 17.9022 20.8465 19.2952 21.5201 20.385C22.1938 21.4747 23.6863 21.8484 24.8539 21.2197Z" fill="#60A9C1"/>
</g>
<mask id="mask4_148_790" style="mask-type:luminance" maskUnits="userSpaceOnUse" x="0" y="0" width="37" height="34">
<path d="M0 0.248047H36.5246V33.7518H0V0.248047Z" fill="white"/>
</mask>
<g mask="url(#mask4_148_790)">
<path fill-rule="evenodd" clip-rule="evenodd" d="M36.1986 12.4914C35.874 11.9612 35.3369 11.5732 34.7056 11.4128C34.0743 11.2524 33.4006 11.3329 32.8329 11.6365C31.6507 12.2691 31.2408 13.6758 31.9169 14.7801C32.2419 15.3105 32.7795 15.6986 33.4112 15.8589C34.0429 16.0193 34.717 15.9388 35.2851 15.6351C35.8529 15.3313 36.2682 14.8294 36.4395 14.2399C36.6108 13.6503 36.5242 13.0214 36.1986 12.4914Z" fill="#60A9C1"/>
</g>
<mask id="mask5_148_790" style="mask-type:luminance" maskUnits="userSpaceOnUse" x="0" y="0" width="37" height="34">
<path d="M0 0.248047H36.5246V33.7518H0V0.248047Z" fill="white"/>
</mask>
<g mask="url(#mask5_148_790)">
<path fill-rule="evenodd" clip-rule="evenodd" d="M17.6422 24.4378L20.1734 25.8001C20.8864 26.1719 21.3234 26.8788 21.3115 27.641V30.3679C21.3711 31.5849 22.4456 32.5429 23.7509 32.5429C25.0561 32.5429 26.1306 31.5849 26.1903 30.3679V27.6434C26.1795 26.8815 26.6162 26.1751 27.3283 25.8025L29.8621 24.4378C30.9572 23.779 31.3053 22.4339 30.6531 21.3812C30.001 20.3285 28.5782 19.9391 27.4202 20.4963L24.8864 21.861C24.1854 22.2516 23.3112 22.2516 22.6103 21.861L20.079 20.4963C18.9188 19.9222 17.4798 20.3083 16.8234 21.3699C16.1671 22.4315 16.529 23.7876 17.6422 24.4378Z" fill="#E8E2EC"/>
</g>
<mask id="mask6_148_790" style="mask-type:luminance" maskUnits="userSpaceOnUse" x="0" y="0" width="37" height="34">
<path d="M0 0.248047H36.5246V33.7518H0V0.248047Z" fill="white"/>
</mask>
<g mask="url(#mask6_148_790)">
<path fill-rule="evenodd" clip-rule="evenodd" d="M31.4134 29.2463C31.7432 28.7187 31.8346 28.0904 31.6676 27.4998C31.5005 26.9092 31.0887 26.4048 30.5228 26.0979C29.9576 25.7901 29.2843 25.7047 28.6515 25.8606C28.0187 26.0166 27.4784 26.4009 27.1495 26.9291C26.4642 28.028 26.8629 29.4374 28.0401 30.0775C29.2175 30.7171 30.7276 30.345 31.4134 29.2463Z" fill="#E8E2EC"/>
</g>
<mask id="mask7_148_790" style="mask-type:luminance" maskUnits="userSpaceOnUse" x="0" y="0" width="37" height="34">
<path d="M0 0.248047H36.5246V33.7518H0V0.248047Z" fill="white"/>
</mask>
<g mask="url(#mask7_148_790)">
<path fill-rule="evenodd" clip-rule="evenodd" d="M11.0516 20.2176V22.9445C11.063 23.7066 10.6261 24.4132 9.91359 24.7854L7.38489 26.1477C6.29111 26.8061 5.94277 28.1494 6.59297 29.2017C7.24317 30.254 8.66337 30.6454 9.82173 30.0916L12.3504 28.7293C13.0505 28.3386 13.9239 28.3386 14.624 28.7293L17.1578 30.0939C18.3135 30.6284 19.7153 30.2329 20.3602 29.1903C21.005 28.1477 20.6711 26.8169 19.5972 26.1501L17.0634 24.7854C16.3512 24.414 15.9144 23.7082 15.9253 22.9469V20.22C15.8664 19.0043 14.7936 18.0468 13.4897 18.0461C12.1858 18.0455 11.1119 19.002 11.0516 20.2176Z" fill="#7060C1"/>
</g>
<mask id="mask8_148_790" style="mask-type:luminance" maskUnits="userSpaceOnUse" x="0" y="0" width="37" height="34">
<path d="M0 0.248047H36.5246V33.7518H0V0.248047Z" fill="white"/>
</mask>
<g mask="url(#mask8_148_790)">
<path fill-rule="evenodd" clip-rule="evenodd" d="M13.4722 33.7527C14.1266 33.7552 14.7553 33.515 15.2199 33.0849C15.6846 32.6548 15.9471 32.07 15.9498 31.4592C15.9541 30.1869 14.8532 29.152 13.49 29.1467C12.8356 29.1448 12.2072 29.3857 11.743 29.8162C11.2788 30.2468 11.0169 30.8318 11.0149 31.4426C11.0122 32.0531 11.2696 32.6397 11.7305 33.073C12.1914 33.5063 12.818 33.7508 13.4722 33.7527Z" fill="#7060C1"/>
</g>
<mask id="mask9_148_790" style="mask-type:luminance" maskUnits="userSpaceOnUse" x="0" y="0" width="37" height="34">
<path d="M0 0.248047H36.5246V33.7518H0V0.248047Z" fill="white"/>
</mask>
<g mask="url(#mask9_148_790)">
<path fill-rule="evenodd" clip-rule="evenodd" d="M11.6862 12.7794L9.15499 14.144C8.45401 14.5347 7.57988 14.5347 6.8789 14.144L4.34764 12.7794C3.18963 12.2222 1.76685 12.6116 1.11466 13.6643C0.462472 14.717 0.810589 16.0621 1.9057 16.7209L4.4344 18.0855C5.14776 18.4558 5.58508 19.1623 5.57245 19.9241V22.6533C5.64495 23.8606 6.71501 24.8049 8.01056 24.8049C9.30612 24.8049 10.3762 23.8606 10.4487 22.6533V19.9217C10.4372 19.1609 10.873 18.4552 11.5842 18.0831L14.1154 16.7185C15.2207 16.0673 15.5787 14.7181 14.9266 13.6607C14.2746 12.6033 12.8448 12.2145 11.6862 12.7794Z" fill="#60A9C1"/>
</g>
<mask id="mask10_148_790" style="mask-type:luminance" maskUnits="userSpaceOnUse" x="0" y="0" width="37" height="34">
<path d="M0 0.248047H36.5246V33.7518H0V0.248047Z" fill="white"/>
</mask>
<g mask="url(#mask10_148_790)">
<path fill-rule="evenodd" clip-rule="evenodd" d="M0.326656 21.5088C1.00447 22.6122 2.51166 22.9948 3.69486 22.3638C4.87674 21.7321 5.28675 20.3262 4.61091 19.2225C4.28587 18.6922 3.74832 18.3041 3.11661 18.1437C2.48489 17.9834 1.81079 18.0639 1.2427 18.3676C0.674604 18.6705 0.258841 19.1718 0.0870158 19.761C-0.0848096 20.3502 0.00140186 20.979 0.326656 21.5088Z" fill="#60A9C1"/>
</g>
<mask id="mask11_148_790" style="mask-type:luminance" maskUnits="userSpaceOnUse" x="0" y="0" width="37" height="34">
<path d="M0 0.248047H36.5246V33.7518H0V0.248047Z" fill="white"/>
</mask>
<g mask="url(#mask11_148_790)">
<path fill-rule="evenodd" clip-rule="evenodd" d="M18.8831 9.56478L16.3544 8.20015C15.6423 7.82869 15.2055 7.12294 15.2164 6.36159V3.6347C15.1567 2.41774 14.0823 1.45972 12.777 1.45972C11.4718 1.45972 10.3973 2.41774 10.3376 3.6347V6.36159C10.3497 7.12321 9.91252 7.82946 9.19957 8.20015L6.66831 9.56478C5.58838 10.2299 5.25073 11.5651 5.89811 12.6107C6.54549 13.6562 7.95366 14.0499 9.11026 13.5086L11.6441 12.1416C12.3449 11.7535 13.2168 11.7535 13.9176 12.1416L16.4489 13.5063C17.615 14.1337 19.1053 13.7599 19.7775 12.6715C20.4497 11.5831 20.0493 10.1922 18.8831 9.56478Z" fill="#E8E2EC"/>
</g>
<mask id="mask12_148_790" style="mask-type:luminance" maskUnits="userSpaceOnUse" x="0" y="0" width="37" height="34">
<path d="M0 0.248047H36.5246V33.7518H0V0.248047Z" fill="white"/>
</mask>
<g mask="url(#mask12_148_790)">
<path fill-rule="evenodd" clip-rule="evenodd" d="M5.11162 4.75809C4.78272 5.28613 4.69204 5.91449 4.85953 6.50493C5.02702 7.09538 5.43895 7.59954 6.00471 7.90651C7.18217 8.54615 8.69225 8.17408 9.37801 7.07535C10.0631 5.97504 9.66338 4.56471 8.48493 3.92454C7.91917 3.61757 7.24593 3.53294 6.61331 3.68926C5.98069 3.84558 5.44052 4.23005 5.11162 4.75809Z" fill="#E8E2EC"/>
</g>
</g>
</svg>
